#!OML:ASF F:\VICON\USERDATA\INSTALL\rory3\rory3.ASF
:FULLY-SPECIFIED
:DEGREES
1
root 0.6635756095867759 18.040088969110325 -17.994281822230803 -1.7935244140876656 -3.165936828869513 -5.658900761216172
lfemur -25.683789134488634 2.040218494373643 -14.117708396588707
ltibia 67.51927793947367
lfoot -4.512922471606046 -3.446738976264829
ltoes -6.189815345249412
rfemur -9.5139514164244 7.67470678588022 33.22148848179444
rtibia 30.755503981976492
rfoot -15.484493165691092 -3.8246843144192195
rtoes 11.010788961974868
lowerback 13.21967210533744 0.1372303471852397 3.4218050946010043
upperback -0.18617379478593915 0.9053431287071304 2.4919157688958045
thorax -7.624227265275492 0.3590476001426993 0.538268168377539
lowerneck -16.16220183092437 -3.1491741387198644 -2.276095097012005
upperneck 22.006491833779105 -3.7424801884153003 -0.23558690022385054
head 9.677702548167712 -1.9582946587401489 -0.1894343842704425
lclavicle -4.533851672633998e-16 -7.764982089431183e-16
lhumerus -31.84039884872924 3.7618424844268787 80.82959385375037
lradius 26.82529563343762
lwrist 6.43367666224586
lhand -26.977506245984276 21.86889728871299
lfingers 7.12502
lthumb -0.3983752426569165 51.848297289478715
rclavicle -4.533851672633998e-16 -7.764982089431183e-16
rhumerus -28.272699889697126 -19.50529806552073 -77.8289016696747
rradius 23.219507233619936
rwrist 5.002668011145677
rhand -14.591724897810327 14.635729925364629
rfingers 7.12502
rthumb 11.558474985163354 -15.025570050783188
2
root 0.6758173410265511 17.952895255475617 -17.30278230100467 -1.5933756499472023 -3.659225174893164 -6.055309510684952
lfemur -28.712387604083382 1.9316289752280795 -13.857108984688203
ltibia 62.20168320069031
lfoot -6.997629549775806 -0.5967110271352225
ltoes -7.335463659252909
rfemur -7.309562720564294 7.568777197909236 33.85408731509015
rtibia 31.14760381078726
rfoot -17.997990200259796 -4.088653789186937
rtoes 10.4559896637109
lowerback 12.9253745733626 0.4383363579939806 4.257473113148285
upperback -0.09771865100616493 1.406057043767706 2.422546640759026
thorax -7.33470154743943 0.5743556301197286 -0.1003731309490189
lowerneck -15.708409856619154 -3.1436943106837667 -2.1906464220646242
upperneck 21.625496256181638 -3.756289944864501 -0.2728535161976047
head 9.456320189087773 -1.9626844521921505 -0.20594301136967236
lclavicle -4.533851216596683e-16 -7.764981645236249e-16
lhumerus -32.89579724503167 4.487581312740384 80.98199308531363
lradius 26.01259728936394
lwrist 5.621098989219662
lhand -26.659307678390363 21.3773982094216
lfingers 7.12502
lthumb -0.09100398649208397 51.357198178271574
rclavicle -4.533851216596683e-16 -7.764981645236249e-16
rhumerus -26.384202826152837 -16.600501835634386 -79.38939823037292
rradius 25.39370255277207
rwrist 2.4100332937824085
rhand -14.758623551759223 14.924128693974733
rfingers 7.12502
rthumb 11.397476320300125 -14.746071485813424
3
root 0.6885560288663235 17.960294723964278 -16.591483943552525 -1.0023794578725744 -4.568952169021076 -6.643038222798751
lfemur -30.37798685101947 1.3803406190786274 -13.152009646380046
ltibia 52.75668714657953
lfoot -6.698829895788017 3.2234914210783074
ltoes -7.759963161288239
rfemur -4.2380349026894555 7.608327148048463 34.49388685084931
rtibia 29.279304923113507
rfoot -19.328888784076653 -3.737074549385507
rtoes 8.807132494809176
lowerback 12.6042774959074 0.9402720297700344 5.237610909876256
upperback -0.059233707806418665 2.189043857011509 2.361597376876616
thorax -7.050005606420356 0.9252044231316142 -0.8537260122443016
lowerneck -16.379597975923417 -3.2668505637167575 -1.9736397675252055
upperneck 21.683595600275307 -3.9690861980996712 -0.26568658102800946
head 9.59841528680348 -2.0394709634975894 -0.2794223125286267
lclavicle -4.533852128671616e-16 -7.764982351553688e-16
lhumerus -33.64649614319796 5.129490201460168 81.13129233132142
lradius 25.169399050438933
lwrist 5.238780064510816
lhand -26.57250801377215 20.887299175136594
lfingers 7.12502
lthumb -0.007210350681789768 50.86709914035715
rclavicle -4.533852128671616e-16 -7.764982351553688e-16
rhumerus -24.549005739407146 -13.63290584013375 -80.77729509947918
rradius 27.616697856044684
rwrist 0.4356983063563771
rhand -18.456595786056372 22.725298078317053
rfingers 7.12502
rthumb 7.829664207037939 -7.109691831432739
4
root 0.7063226122472664 17.937296378866783 -15.877184346917835 -0.5188934352338554 -4.874211087751569 -6.808997529351629
lfemur -30.424587001916947 -1.1304818094493883 -12.282010997484832
ltibia 41.32299389320979
lfoot -5.510361306223995 3.511551093325698
ltoes -6.544704944554941
rfemur -0.9968759940571683 7.187368313709744 34.57408622026141
rtibia 27.04720596224827
rfoot -20.049888165969033 -3.3762851186975356
rtoes 9.076551942870923
lowerback 12.279680373562918 1.1870243997902465 5.788809375601805
upperback -0.12832852916506815 2.567062233769655 2.2491288382146095
thorax -6.893287976541709 1.091402871164256 -1.339941849519304
lowerneck -16.55309489884802 -3.250651045972547 -1.7390233977346956
upperneck 21.777594513978 -3.968286203557425 -0.4183161185870423
head 9.654703346635229 -2.0360111200009747 -0.3750521026803887
lclavicle -4.533851577187002e-16 -7.764982205581059e-16
lhumerus -34.82689455321214 6.314668188669557 80.93449331028623
lradius 24.34950073368365
lwrist 4.765521387232047
lhand -26.514808281202292 19.49140190675946
lfingers 7.12502
lthumb 0.04852751141417211 49.47120188219531
rclavicle -4.533851577187002e-16 -7.764982205581059e-16
rhumerus -22.96770811182683 -10.969009305648486 -81.62139315968977
rradius 29.487093801562512
rwrist -1.1832390835315056
rhand -18.825693020723172 22.17490026556491
rfingers 7.12502
rthumb 7.473436985937961 -7.673089580479552
